<?xml version="1.0" encoding="UTF-8"?>
<svg version="1.1" xmlns="http://www.w3.org/2000/svg" width="96" height="48">
<path d="M0 0 C31.68 0 63.36 0 96 0 C96 15.84 96 31.68 96 48 C64.32 48 32.64 48 0 48 C0 32.16 0 16.32 0 0 Z " fill="#F6F6F5" transform="translate(0,0)"/>
<path d="M0 0 C2.97 0 5.94 0 9 0 C9.66 2.97 10.32 5.94 11 9 C11.33 9 11.66 9 12 9 C12.66 6.03 13.32 3.06 14 0 C16.64 0 19.28 0 22 0 C21.03151188 3.01307415 20.02943659 6.00736279 19 9 C18.78005371 9.64291992 18.56010742 10.28583984 18.33349609 10.94824219 C17.59120074 13.09597 16.82879854 15.23572983 16.0625 17.375 C15.82192871 18.07689453 15.58135742 18.77878906 15.33349609 19.50195312 C13.90718585 23.42028385 12.79819755 26.06452002 9 28 C5.3125 28.25 5.3125 28.25 2 28 C1 27 1 27 0.9375 24.4375 C0.958125 23.633125 0.97875 22.82875 1 22 C2.98 21.34 4.96 20.68 7 20 C4.80962826 13.27954125 2.44234339 6.63275997 0 0 Z " fill="#0B0B0B" transform="translate(57,13)"/>
<path d="M0 0 C0.77085938 -0.01417969 1.54171875 -0.02835938 2.3359375 -0.04296875 C4.8827759 0.21345355 6.46451509 0.83124846 8.625 2.1875 C10.15766582 5.25283164 9.72776471 8.45504272 9.6875 11.8125 C9.68298828 12.51890625 9.67847656 13.2253125 9.67382812 13.953125 C9.66203875 15.69795275 9.64410324 17.442737 9.625 19.1875 C6.29166667 19.1875 2.95833333 19.1875 -0.375 19.1875 C-1.6125 19.2803125 -1.6125 19.2803125 -2.875 19.375 C-5.375 19.1875 -5.375 19.1875 -7.1875 18 C-8.80025784 15.53842224 -8.8084014 14.07684264 -8.375 11.1875 C-7.375 9.4375 -7.375 9.4375 -5.375 8.1875 C-2.69443869 7.64292837 -0.11209108 7.41185173 2.625 7.1875 C2.625 6.5275 2.625 5.8675 2.625 5.1875 C-1.83 5.6825 -1.83 5.6825 -6.375 6.1875 C-6.375 4.5375 -6.375 2.8875 -6.375 1.1875 C-4.04904054 0.02452027 -2.58776769 0.02149309 0 0 Z " fill="#121212" transform="translate(13.375,12.8125)"/>
<path d="M0 0 C2.296875 1.99609375 2.296875 1.99609375 2.78515625 5.7890625 C2.75199697 7.2547026 2.69246479 8.71993514 2.609375 10.18359375 C2.58681641 10.93318359 2.56425781 11.68277344 2.54101562 12.45507812 C2.48216657 14.30293845 2.39248438 16.14977042 2.296875 17.99609375 C0.316875 17.99609375 -1.663125 17.99609375 -3.703125 17.99609375 C-4.033125 17.33609375 -4.363125 16.67609375 -4.703125 15.99609375 C-5.363125 16.65609375 -6.023125 17.31609375 -6.703125 17.99609375 C-9.84016816 18.32982175 -11.86866666 18.52458403 -14.578125 16.80859375 C-16.12541978 14.31572994 -16.20718216 12.8764204 -15.703125 9.99609375 C-12.7034805 6.75647769 -8.88396174 6.04130294 -4.703125 4.99609375 C-7.673125 4.99609375 -10.643125 4.99609375 -13.703125 4.99609375 C-13.703125 3.34609375 -13.703125 1.69609375 -13.703125 -0.00390625 C-9.07653869 -1.48441387 -4.5777782 -1.70012861 0 0 Z " fill="#111111" transform="translate(52.703125,14.00390625)"/>
<path d="M0 0 C2.31 0 4.62 0 7 0 C7.14522934 3.91627663 7.23404757 7.83186153 7.3125 11.75 C7.3753418 13.41675781 7.3753418 13.41675781 7.43945312 15.1171875 C7.56314479 23.3303143 7.56314479 23.3303143 4.6875 26.75 C1.57084566 28.19960667 -0.60069743 28.31621419 -4 28 C-4 26.02 -4 24.04 -4 22 C-3.01 21.67 -2.02 21.34 -1 21 C-0.67 14.07 -0.34 7.14 0 0 Z " fill="#050505" transform="translate(27,13)"/>
<path d="M0 0 C2.5625 0.1875 2.5625 0.1875 4.5625 2.1875 C4.02678571 5.72321429 4.02678571 5.72321429 2.5625 7.1875 C0.125 7.375 0.125 7.375 -2.4375 7.1875 C-3.0975 6.5275 -3.7575 5.8675 -4.4375 5.1875 C-3.69457547 0.28419811 -3.69457547 0.28419811 0 0 Z " fill="#FB3C45" transform="translate(84.4375,24.8125)"/>
<path d="M0 0 C2.5625 0.1875 2.5625 0.1875 4.5625 2.1875 C4.02678571 5.72321429 4.02678571 5.72321429 2.5625 7.1875 C0.0625 7.3125 0.0625 7.3125 -2.4375 7.1875 C-3.4375 6.1875 -3.4375 6.1875 -3.5625 3.6875 C-3.39599509 0.35740177 -3.31519894 0.2550153 0 0 Z " fill="#0D0D0D" transform="translate(30.4375,3.8125)"/>
</svg>
